<svg width="17" height="17" viewBox="0 0 17 17" fill="none" xmlns="http://www.w3.org/2000/svg">
<path d="M0.335693 2.02518C0.335693 0.98558 1.17845 0.142822 2.21805 0.142822H5.04158C6.08117 0.142822 6.92393 0.98558 6.92393 2.02518V4.8487C6.92393 5.8883 6.08117 6.73106 5.04158 6.73106H2.21805C1.17845 6.73106 0.335693 5.8883 0.335693 4.8487V2.02518Z" fill="white"/>
<path d="M0.335693 10.4958C0.335693 9.45617 1.17845 8.61341 2.21805 8.61341H5.04158C6.08117 8.61341 6.92393 9.45617 6.92393 10.4958V13.3193C6.92393 14.3589 6.08117 15.2016 5.04158 15.2016H2.21805C1.17845 15.2016 0.335693 14.3589 0.335693 13.3193V10.4958Z" fill="white"/>
<path d="M8.80628 2.02518C8.80628 0.98558 9.64904 0.142822 10.6886 0.142822H13.5122C14.5518 0.142822 15.3945 0.98558 15.3945 2.02518V4.8487C15.3945 5.8883 14.5518 6.73106 13.5122 6.73106H10.6886C9.64904 6.73106 8.80628 5.8883 8.80628 4.8487V2.02518Z" fill="white"/>
<path d="M8.80628 10.4958C8.80628 9.45617 9.64904 8.61341 10.6886 8.61341H14.4533C15.4929 8.61341 16.3357 9.45617 16.3357 10.4958V14.2605C16.3357 15.3001 15.4929 16.1428 14.4533 16.1428H10.6886C9.64904 16.1428 8.80628 15.3001 8.80628 14.2605V10.4958Z" fill="white"/>
</svg>
