<svg width="17" height="17" viewBox="0 0 17 17" fill="none" xmlns="http://www.w3.org/2000/svg">
<path d="M9.35322 3.95239H8.08338C7.7466 3.95239 7.42361 4.0951 7.18547 4.34912C6.94732 4.60313 6.81354 4.94765 6.81354 5.30689V14.8095C6.81354 15.5459 7.41049 16.1429 8.14687 16.1429H9.28973C10.0261 16.1429 10.6231 15.5459 10.6231 14.8095V5.30689C10.6231 4.94765 10.4893 4.60313 10.2511 4.34912C10.013 4.0951 9.69 3.95239 9.35322 3.95239Z" fill="white"/>
<path d="M15.4485 0.142822H14.1787C13.8419 0.142822 13.5189 0.283298 13.2807 0.533347C13.0426 0.783395 12.9088 1.12253 12.9088 1.47616V14.8095C12.9088 15.5459 13.5058 16.1428 14.2421 16.1428H15.385C16.1214 16.1428 16.7183 15.5459 16.7183 14.8095V1.47616C16.7183 1.12253 16.5846 0.783395 16.3464 0.533347C16.1083 0.283298 15.7853 0.142822 15.4485 0.142822Z" fill="white"/>
<path d="M3.25801 7.76196H1.98816C1.65138 7.76196 1.32839 7.90913 1.09025 8.17108C0.852109 8.43304 0.718323 8.78833 0.718323 9.15879L0.718323 14.8096C0.718323 15.546 1.31528 16.1429 2.05166 16.1429H3.19451C3.93089 16.1429 4.52785 15.546 4.52785 14.8096V9.15879C4.52785 8.78833 4.39406 8.43304 4.15592 8.17108C3.91778 7.90913 3.59479 7.76196 3.25801 7.76196Z" fill="white"/>
</svg>
